<?xml version="1.0" encoding="UTF-8" standalone="no"?>
<!DOCTYPE svg PUBLIC "-//W3C//DTD SVG 1.1//EN" "http://www.w3.org/Graphics/SVG/1.1/DTD/svg11.dtd">
<svg width="100%" height="100%" viewBox="0 0 800 800" version="1.1" xmlns="http://www.w3.org/2000/svg" xmlns:xlink="http://www.w3.org/1999/xlink" xml:space="preserve" xmlns:serif="http://www.serif.com/" style="fill-rule:evenodd;clip-rule:evenodd;stroke-linejoin:round;stroke-miterlimit:2;">
    <g transform="matrix(0.707107,0.707107,-0.707107,0.707107,400,-165.685)">
        <rect x="300" y="-0" width="100" height="800" style="fill:rgb(191,191,191);"/>
    </g>
    <g transform="matrix(0.707107,-0.707107,0.707107,0.707107,-165.685,400)">
        <rect x="300" y="-0" width="100" height="800" style="fill:rgb(191,191,191);"/>
    </g>
    <g transform="matrix(0.707107,-0.707107,0.707107,0.707107,-165.685,400)">
        <rect x="300" y="300" width="100" height="100" style="fill:rgb(64,64,64);"/>
    </g>
    <path d="M400,-0C620.766,-0 800,179.234 800,400C800,620.766 620.766,800 400,800C179.234,800 -0,620.766 -0,400C-0,179.234 179.234,-0 400,-0ZM400,100C565.575,100 700,234.425 700,400C700,565.575 565.575,700 400,700C234.425,700 100,565.575 100,400C100,234.425 234.425,100 400,100Z" style="fill:rgb(128,128,128);"/>
    <path d="M400,200C510.383,200 600,289.617 600,400C600,510.383 510.383,600 400,600C289.617,600 200,510.383 200,400C200,289.617 289.617,200 400,200ZM400,300C455.192,300 500,344.808 500,400C500,455.192 455.192,500 400,500C344.808,500 300,455.192 300,400C300,344.808 344.808,300 400,300Z"/>
</svg>
