<svg width="100" height="100" viewBox="0 0 100 100" fill="none" xmlns="http://www.w3.org/2000/svg">
<circle cx="50" cy="50" r="50" fill="white"/>
<path d="M57.3164 33.7635C55.5856 31.9814 53.1682 31 50.5 31C47.8176 31 45.3922 31.9754 43.6694 33.7465C41.928 35.5371 41.0795 37.9706 41.2787 40.5983C41.6736 45.7826 45.8102 49.9999 50.5 49.9999C55.1898 49.9999 59.3193 45.7834 59.7204 40.6C59.9223 37.996 59.0685 35.5676 57.3164 33.7635V33.7635ZM66.1534 68.9998H34.8466C34.4368 69.0049 34.031 68.9228 33.6587 68.7595C33.2863 68.5961 32.9569 68.3557 32.6942 68.0557C32.1161 67.3967 31.8831 66.4967 32.0557 65.5866C32.8063 61.6153 35.149 58.2793 38.8311 55.9374C42.1023 53.8584 46.246 52.7142 50.5 52.7142C54.754 52.7142 58.8977 53.8592 62.1689 55.9374C65.851 58.2784 68.1937 61.6144 68.9443 65.5857C69.1169 66.4959 68.8839 67.3958 68.3058 68.0549C68.0432 68.355 67.7138 68.5956 67.3414 68.7591C66.9691 68.9225 66.5633 69.0048 66.1534 68.9998V68.9998Z" fill="#B5B5B5"/>
<path d="M81.1154 94H79V91.8846L90.9285 79.9265L93.0735 82.0719L81.1154 94ZM93.5277 81.6154L91.3846 79.4723L92.6023 78.2931C92.7904 78.1038 93.0788 78 93.3462 78C93.4777 77.9997 93.6081 78.0254 93.7297 78.0757C93.8513 78.126 93.9617 78.1999 94.0546 78.2931L94.7085 78.9469C94.8013 79.0397 94.8748 79.1499 94.9248 79.2713C94.9749 79.3926 95.0004 79.5226 95 79.6538C95 79.9231 94.8958 80.2096 94.7069 80.3985L93.5277 81.6154Z" fill="white"/>
</svg>
